<?xml version="1.0" encoding="iso-8859-1"?>
<!-- Uploaded to: SVG Repo, www.svgrepo.com, Generator: SVG Repo Mixer Tools -->
<svg version="1.1" id="Layer_1" xmlns="http://www.w3.org/2000/svg" xmlns:xlink="http://www.w3.org/1999/xlink" 
	 viewBox="0 0 512 512" xml:space="preserve">
<rect x="105.739" y="111.304" style="fill:#EDF0F2;" width="300.522" height="100.174"/>
<rect x="256" y="111.304" style="fill:#DAE1E6;" width="150.261" height="100.174"/>
<path style="fill:#EDF0F2;" d="M406.261,144.696H105.739V50.087C105.739,22.424,128.164,0,155.826,0h200.348
	c27.662,0,50.087,22.424,50.087,50.087V144.696z"/>
<path style="fill:#DAE1E6;" d="M356.174,0H256v144.696h150.261V50.087C406.261,22.424,383.837,0,356.174,0z"/>
<path style="fill:#E6A82E;" d="M422.957,178.087H89.043c-27.664,0-50.087,22.424-50.087,50.087v94.609h434.087v-94.609
	C473.043,200.511,450.62,178.087,422.957,178.087z"/>
<path style="fill:#665247;" d="M456.348,512H55.652c-27.662,0-50.087-22.424-50.087-50.087v-50.087l251.548-33.391l249.322,33.391
	v50.087C506.435,489.576,484.01,512,456.348,512z"/>
<polygon style="fill:#736056;" points="473.043,311.652 38.957,311.652 5.565,411.826 506.435,411.826 "/>
<polygon style="fill:#665247;" points="256,411.826 506.435,411.826 473.043,311.652 256,311.652 "/>
<path style="fill:#59483E;" d="M256,512h200.348c27.664,0,50.087-22.424,50.087-50.087v-50.087H256V512z"/>
<g>
	<circle style="fill:#EDF0F2;" cx="122.435" cy="361.739" r="16.696"/>
	<circle style="fill:#EDF0F2;" cx="189.217" cy="361.739" r="16.696"/>
	<circle style="fill:#EDF0F2;" cx="256" cy="361.739" r="16.696"/>
</g>
<g>
	<circle style="fill:#DAE1E6;" cx="322.783" cy="361.739" r="16.696"/>
	<circle style="fill:#DAE1E6;" cx="389.565" cy="361.739" r="16.696"/>
</g>
<path style="fill:#E69A00;" d="M422.957,178.087H256v133.565h217.043v-83.478C473.043,200.511,450.62,178.087,422.957,178.087z"/>
<path style="fill:#DAE1E6;" d="M272.696,361.739c0-9.22-7.475-16.696-16.696-16.696v33.391
	C265.22,378.435,272.696,370.96,272.696,361.739z"/>
<path style="fill:#665247;" d="M456.348,77.913c-9.217,0-16.696,7.473-16.696,16.696v16.696H72.348V94.609
	c0-9.223-7.479-16.696-16.696-16.696s-16.696,7.473-16.696,16.696V128c0,9.223,7.479,16.696,16.696,16.696h400.696
	c9.217,0,16.696-7.473,16.696-16.696V94.609C473.043,85.386,465.565,77.913,456.348,77.913z"/>
<path style="fill:#59483E;" d="M456.348,77.913c-9.217,0-16.696,7.473-16.696,16.696v16.696H256v33.391h200.348
	c9.217,0,16.696-7.473,16.696-16.696V94.609C473.043,85.386,465.565,77.913,456.348,77.913z"/>
</svg>